<mxfile host="app.diagrams.net" modified="2021-08-17T08:26:45.515Z" agent="5.0 (Windows NT 10.0; Win64; x64) AppleWebKit/537.36 (KHTML, like Gecko) Chrome/91.0.4472.124 Safari/537.36" etag="MBP49jOZ1phT_hrpIeii" version="14.9.6" type="github">
  <diagram id="C5RBs43oDa-KdzZeNtuy" name="Page-1">
    <mxGraphModel dx="1745" dy="1308" grid="1" gridSize="10" guides="1" tooltips="1" connect="1" arrows="1" fold="1" page="1" pageScale="1" pageWidth="827" pageHeight="1169" math="0" shadow="0">
      <root>
        <mxCell id="WIyWlLk6GJQsqaUBKTNV-0" />
        <mxCell id="WIyWlLk6GJQsqaUBKTNV-1" parent="WIyWlLk6GJQsqaUBKTNV-0" />
        <mxCell id="WIyWlLk6GJQsqaUBKTNV-3" value="Http请求" style="rounded=1;whiteSpace=wrap;html=1;fontSize=12;glass=0;strokeWidth=1;shadow=0;" parent="WIyWlLk6GJQsqaUBKTNV-1" vertex="1">
          <mxGeometry x="160" y="80" width="120" height="40" as="geometry" />
        </mxCell>
        <mxCell id="wDdCfdmjTicAlC8jtAus-0" value="Taf请求" style="rounded=1;whiteSpace=wrap;html=1;fontSize=12;glass=0;strokeWidth=1;shadow=0;" vertex="1" parent="WIyWlLk6GJQsqaUBKTNV-1">
          <mxGeometry x="354" y="80" width="120" height="40" as="geometry" />
        </mxCell>
        <mxCell id="wDdCfdmjTicAlC8jtAus-2" value="" style="endArrow=classic;html=1;exitX=0.5;exitY=1;exitDx=0;exitDy=0;" edge="1" parent="WIyWlLk6GJQsqaUBKTNV-1" source="WIyWlLk6GJQsqaUBKTNV-3">
          <mxGeometry width="50" height="50" relative="1" as="geometry">
            <mxPoint x="195" y="210" as="sourcePoint" />
            <mxPoint x="220" y="160" as="targetPoint" />
          </mxGeometry>
        </mxCell>
        <mxCell id="wDdCfdmjTicAlC8jtAus-3" value="TVSGatewayServer入口" style="rounded=1;whiteSpace=wrap;html=1;fontSize=12;glass=0;strokeWidth=1;shadow=0;" vertex="1" parent="WIyWlLk6GJQsqaUBKTNV-1">
          <mxGeometry x="70" y="160" width="510" height="40" as="geometry" />
        </mxCell>
        <mxCell id="wDdCfdmjTicAlC8jtAus-4" value="" style="endArrow=classic;html=1;exitX=0.5;exitY=1;exitDx=0;exitDy=0;" edge="1" parent="WIyWlLk6GJQsqaUBKTNV-1">
          <mxGeometry width="50" height="50" relative="1" as="geometry">
            <mxPoint x="414" y="120" as="sourcePoint" />
            <mxPoint x="414" y="160" as="targetPoint" />
          </mxGeometry>
        </mxCell>
        <mxCell id="wDdCfdmjTicAlC8jtAus-5" value="" style="endArrow=classic;html=1;exitX=0.5;exitY=1;exitDx=0;exitDy=0;" edge="1" parent="WIyWlLk6GJQsqaUBKTNV-1">
          <mxGeometry width="50" height="50" relative="1" as="geometry">
            <mxPoint x="219.5" y="200" as="sourcePoint" />
            <mxPoint x="219.5" y="240" as="targetPoint" />
          </mxGeometry>
        </mxCell>
        <mxCell id="wDdCfdmjTicAlC8jtAus-6" value="" style="endArrow=classic;html=1;exitX=0.5;exitY=1;exitDx=0;exitDy=0;" edge="1" parent="WIyWlLk6GJQsqaUBKTNV-1">
          <mxGeometry width="50" height="50" relative="1" as="geometry">
            <mxPoint x="414" y="200" as="sourcePoint" />
            <mxPoint x="414" y="240" as="targetPoint" />
          </mxGeometry>
        </mxCell>
        <mxCell id="wDdCfdmjTicAlC8jtAus-7" value="限流校验" style="rounded=1;whiteSpace=wrap;html=1;fontSize=12;glass=0;strokeWidth=1;shadow=0;" vertex="1" parent="WIyWlLk6GJQsqaUBKTNV-1">
          <mxGeometry x="70" y="240" width="510" height="40" as="geometry" />
        </mxCell>
        <mxCell id="wDdCfdmjTicAlC8jtAus-8" value="" style="endArrow=classic;html=1;exitX=0.5;exitY=1;exitDx=0;exitDy=0;" edge="1" parent="WIyWlLk6GJQsqaUBKTNV-1">
          <mxGeometry width="50" height="50" relative="1" as="geometry">
            <mxPoint x="219.5" y="280" as="sourcePoint" />
            <mxPoint x="219.5" y="320" as="targetPoint" />
          </mxGeometry>
        </mxCell>
        <mxCell id="wDdCfdmjTicAlC8jtAus-9" value="利用httpRequest&lt;br&gt;填充VO对象" style="rounded=1;whiteSpace=wrap;html=1;fontSize=12;glass=0;strokeWidth=1;shadow=0;" vertex="1" parent="WIyWlLk6GJQsqaUBKTNV-1">
          <mxGeometry x="160" y="320" width="120" height="40" as="geometry" />
        </mxCell>
        <mxCell id="wDdCfdmjTicAlC8jtAus-11" value="" style="endArrow=classic;html=1;exitX=0.5;exitY=1;exitDx=0;exitDy=0;" edge="1" parent="WIyWlLk6GJQsqaUBKTNV-1">
          <mxGeometry width="50" height="50" relative="1" as="geometry">
            <mxPoint x="413.5" y="280" as="sourcePoint" />
            <mxPoint x="413.5" y="320" as="targetPoint" />
          </mxGeometry>
        </mxCell>
        <mxCell id="wDdCfdmjTicAlC8jtAus-12" value="利用TafRequest&lt;br&gt;填充VO对象" style="rounded=1;whiteSpace=wrap;html=1;fontSize=12;glass=0;strokeWidth=1;shadow=0;" vertex="1" parent="WIyWlLk6GJQsqaUBKTNV-1">
          <mxGeometry x="354" y="320" width="120" height="40" as="geometry" />
        </mxCell>
        <mxCell id="wDdCfdmjTicAlC8jtAus-13" value="健康度上报" style="rounded=1;whiteSpace=wrap;html=1;fontSize=12;glass=0;strokeWidth=1;shadow=0;" vertex="1" parent="WIyWlLk6GJQsqaUBKTNV-1">
          <mxGeometry x="70" y="400" width="510" height="40" as="geometry" />
        </mxCell>
        <mxCell id="wDdCfdmjTicAlC8jtAus-14" value="" style="endArrow=classic;html=1;exitX=0.5;exitY=1;exitDx=0;exitDy=0;" edge="1" parent="WIyWlLk6GJQsqaUBKTNV-1">
          <mxGeometry width="50" height="50" relative="1" as="geometry">
            <mxPoint x="219.5" y="360" as="sourcePoint" />
            <mxPoint x="219.5" y="400" as="targetPoint" />
          </mxGeometry>
        </mxCell>
        <mxCell id="wDdCfdmjTicAlC8jtAus-15" value="" style="endArrow=classic;html=1;exitX=0.5;exitY=1;exitDx=0;exitDy=0;" edge="1" parent="WIyWlLk6GJQsqaUBKTNV-1">
          <mxGeometry width="50" height="50" relative="1" as="geometry">
            <mxPoint x="414" y="360" as="sourcePoint" />
            <mxPoint x="414" y="400" as="targetPoint" />
          </mxGeometry>
        </mxCell>
        <mxCell id="wDdCfdmjTicAlC8jtAus-16" value="" style="endArrow=classic;html=1;exitX=0.5;exitY=1;exitDx=0;exitDy=0;" edge="1" parent="WIyWlLk6GJQsqaUBKTNV-1">
          <mxGeometry width="50" height="50" relative="1" as="geometry">
            <mxPoint x="219.5" y="440" as="sourcePoint" />
            <mxPoint x="219.5" y="480" as="targetPoint" />
          </mxGeometry>
        </mxCell>
        <mxCell id="wDdCfdmjTicAlC8jtAus-17" value="读取校验&lt;br&gt;URL和Header参数&amp;nbsp;" style="rounded=1;whiteSpace=wrap;html=1;fontSize=12;glass=0;strokeWidth=1;shadow=0;" vertex="1" parent="WIyWlLk6GJQsqaUBKTNV-1">
          <mxGeometry x="160" y="480" width="120" height="40" as="geometry" />
        </mxCell>
        <mxCell id="wDdCfdmjTicAlC8jtAus-18" value="" style="endArrow=classic;html=1;exitX=0.5;exitY=1;exitDx=0;exitDy=0;" edge="1" parent="WIyWlLk6GJQsqaUBKTNV-1">
          <mxGeometry width="50" height="50" relative="1" as="geometry">
            <mxPoint x="219.5" y="520" as="sourcePoint" />
            <mxPoint x="219.5" y="560" as="targetPoint" />
          </mxGeometry>
        </mxCell>
        <mxCell id="wDdCfdmjTicAlC8jtAus-19" value="判断黑名单&lt;br&gt;appkey/id/dsn" style="rounded=1;whiteSpace=wrap;html=1;fontSize=12;glass=0;strokeWidth=1;shadow=0;" vertex="1" parent="WIyWlLk6GJQsqaUBKTNV-1">
          <mxGeometry x="160" y="560" width="120" height="40" as="geometry" />
        </mxCell>
        <mxCell id="wDdCfdmjTicAlC8jtAus-20" value="" style="endArrow=classic;html=1;exitX=0.5;exitY=1;exitDx=0;exitDy=0;" edge="1" parent="WIyWlLk6GJQsqaUBKTNV-1">
          <mxGeometry width="50" height="50" relative="1" as="geometry">
            <mxPoint x="219.5" y="600" as="sourcePoint" />
            <mxPoint x="219.5" y="640" as="targetPoint" />
          </mxGeometry>
        </mxCell>
        <mxCell id="wDdCfdmjTicAlC8jtAus-21" value="请求体读取" style="rounded=1;whiteSpace=wrap;html=1;fontSize=12;glass=0;strokeWidth=1;shadow=0;" vertex="1" parent="WIyWlLk6GJQsqaUBKTNV-1">
          <mxGeometry x="120" y="640" width="200" height="40" as="geometry" />
        </mxCell>
        <mxCell id="wDdCfdmjTicAlC8jtAus-23" value="" style="endArrow=classic;html=1;exitX=0.5;exitY=1;exitDx=0;exitDy=0;" edge="1" parent="WIyWlLk6GJQsqaUBKTNV-1">
          <mxGeometry width="50" height="50" relative="1" as="geometry">
            <mxPoint x="169.5" y="680" as="sourcePoint" />
            <mxPoint x="169.5" y="720" as="targetPoint" />
          </mxGeometry>
        </mxCell>
        <mxCell id="wDdCfdmjTicAlC8jtAus-24" value="JSON" style="rounded=1;whiteSpace=wrap;html=1;fontSize=12;glass=0;strokeWidth=1;shadow=0;" vertex="1" parent="WIyWlLk6GJQsqaUBKTNV-1">
          <mxGeometry x="150" y="720" width="40" height="40" as="geometry" />
        </mxCell>
        <mxCell id="wDdCfdmjTicAlC8jtAus-25" value="" style="endArrow=classic;html=1;exitX=0.5;exitY=1;exitDx=0;exitDy=0;" edge="1" parent="WIyWlLk6GJQsqaUBKTNV-1">
          <mxGeometry width="50" height="50" relative="1" as="geometry">
            <mxPoint x="219.5" y="680" as="sourcePoint" />
            <mxPoint x="219.5" y="720" as="targetPoint" />
          </mxGeometry>
        </mxCell>
        <mxCell id="wDdCfdmjTicAlC8jtAus-26" value="RAW" style="rounded=1;whiteSpace=wrap;html=1;fontSize=12;glass=0;strokeWidth=1;shadow=0;" vertex="1" parent="WIyWlLk6GJQsqaUBKTNV-1">
          <mxGeometry x="200" y="720" width="40" height="40" as="geometry" />
        </mxCell>
        <mxCell id="wDdCfdmjTicAlC8jtAus-27" value="" style="endArrow=classic;html=1;exitX=0.5;exitY=1;exitDx=0;exitDy=0;" edge="1" parent="WIyWlLk6GJQsqaUBKTNV-1">
          <mxGeometry width="50" height="50" relative="1" as="geometry">
            <mxPoint x="269.5" y="680" as="sourcePoint" />
            <mxPoint x="269.5" y="720" as="targetPoint" />
          </mxGeometry>
        </mxCell>
        <mxCell id="wDdCfdmjTicAlC8jtAus-28" value="Multi" style="rounded=1;whiteSpace=wrap;html=1;fontSize=12;glass=0;strokeWidth=1;shadow=0;" vertex="1" parent="WIyWlLk6GJQsqaUBKTNV-1">
          <mxGeometry x="250" y="720" width="40" height="40" as="geometry" />
        </mxCell>
        <mxCell id="wDdCfdmjTicAlC8jtAus-29" value="" style="shape=curlyBracket;whiteSpace=wrap;html=1;rounded=1;" vertex="1" parent="WIyWlLk6GJQsqaUBKTNV-1">
          <mxGeometry x="80" y="480" width="20" height="280" as="geometry" />
        </mxCell>
        <mxCell id="wDdCfdmjTicAlC8jtAus-30" value="进一步完善VO" style="rounded=0;whiteSpace=wrap;html=1;fillColor=none;strokeColor=none;" vertex="1" parent="WIyWlLk6GJQsqaUBKTNV-1">
          <mxGeometry x="-60" y="590" width="120" height="60" as="geometry" />
        </mxCell>
        <mxCell id="wDdCfdmjTicAlC8jtAus-31" value="" style="shape=curlyBracket;whiteSpace=wrap;html=1;rounded=1;rotation=-90;" vertex="1" parent="WIyWlLk6GJQsqaUBKTNV-1">
          <mxGeometry x="210" y="710" width="20" height="160" as="geometry" />
        </mxCell>
        <mxCell id="wDdCfdmjTicAlC8jtAus-32" value="" style="endArrow=classic;html=1;exitX=0.5;exitY=1;exitDx=0;exitDy=0;" edge="1" parent="WIyWlLk6GJQsqaUBKTNV-1">
          <mxGeometry width="50" height="50" relative="1" as="geometry">
            <mxPoint x="219.5" y="790" as="sourcePoint" />
            <mxPoint x="219.5" y="830" as="targetPoint" />
          </mxGeometry>
        </mxCell>
        <mxCell id="wDdCfdmjTicAlC8jtAus-33" value="创建context&lt;br&gt;保存上下文信息" style="rounded=1;whiteSpace=wrap;html=1;fontSize=12;glass=0;strokeWidth=1;shadow=0;" vertex="1" parent="WIyWlLk6GJQsqaUBKTNV-1">
          <mxGeometry x="160" y="830" width="120" height="40" as="geometry" />
        </mxCell>
        <mxCell id="wDdCfdmjTicAlC8jtAus-34" value="" style="endArrow=classic;html=1;exitX=0.5;exitY=1;exitDx=0;exitDy=0;" edge="1" parent="WIyWlLk6GJQsqaUBKTNV-1">
          <mxGeometry width="50" height="50" relative="1" as="geometry">
            <mxPoint x="219.5" y="870" as="sourcePoint" />
            <mxPoint x="219.5" y="910" as="targetPoint" />
          </mxGeometry>
        </mxCell>
        <mxCell id="wDdCfdmjTicAlC8jtAus-37" value="天机阁上报开始" style="rounded=1;whiteSpace=wrap;html=1;fontSize=12;glass=0;strokeWidth=1;shadow=0;" vertex="1" parent="WIyWlLk6GJQsqaUBKTNV-1">
          <mxGeometry x="160" y="910" width="120" height="40" as="geometry" />
        </mxCell>
        <mxCell id="wDdCfdmjTicAlC8jtAus-38" value="" style="endArrow=classic;html=1;exitX=0.5;exitY=1;exitDx=0;exitDy=0;entryX=0.5;entryY=0;entryDx=0;entryDy=0;" edge="1" parent="WIyWlLk6GJQsqaUBKTNV-1" target="wDdCfdmjTicAlC8jtAus-39">
          <mxGeometry width="50" height="50" relative="1" as="geometry">
            <mxPoint x="219.5" y="950.0000000000002" as="sourcePoint" />
            <mxPoint x="219.5" y="990.0000000000002" as="targetPoint" />
          </mxGeometry>
        </mxCell>
        <mxCell id="wDdCfdmjTicAlC8jtAus-39" value="Taf Servant" style="rounded=1;whiteSpace=wrap;html=1;fontSize=12;glass=0;strokeWidth=1;shadow=0;" vertex="1" parent="WIyWlLk6GJQsqaUBKTNV-1">
          <mxGeometry x="120" y="1000" width="80" height="40" as="geometry" />
        </mxCell>
        <mxCell id="wDdCfdmjTicAlC8jtAus-40" value="http Servant" style="rounded=1;whiteSpace=wrap;html=1;fontSize=12;glass=0;strokeWidth=1;shadow=0;" vertex="1" parent="WIyWlLk6GJQsqaUBKTNV-1">
          <mxGeometry x="230" y="1000" width="80" height="40" as="geometry" />
        </mxCell>
        <mxCell id="wDdCfdmjTicAlC8jtAus-42" value="" style="endArrow=classic;html=1;entryX=0.5;entryY=0;entryDx=0;entryDy=0;" edge="1" parent="WIyWlLk6GJQsqaUBKTNV-1" target="wDdCfdmjTicAlC8jtAus-40">
          <mxGeometry width="50" height="50" relative="1" as="geometry">
            <mxPoint x="220" y="950" as="sourcePoint" />
            <mxPoint x="170" y="1010.0000000000002" as="targetPoint" />
          </mxGeometry>
        </mxCell>
        <mxCell id="wDdCfdmjTicAlC8jtAus-43" value="天机阁上报结束" style="rounded=1;whiteSpace=wrap;html=1;fontSize=12;glass=0;strokeWidth=1;shadow=0;" vertex="1" parent="WIyWlLk6GJQsqaUBKTNV-1">
          <mxGeometry x="120" y="1070" width="190" height="40" as="geometry" />
        </mxCell>
        <mxCell id="wDdCfdmjTicAlC8jtAus-44" value="" style="endArrow=classic;html=1;exitX=0.5;exitY=1;exitDx=0;exitDy=0;" edge="1" parent="WIyWlLk6GJQsqaUBKTNV-1">
          <mxGeometry width="50" height="50" relative="1" as="geometry">
            <mxPoint x="160" y="1040" as="sourcePoint" />
            <mxPoint x="160" y="1070" as="targetPoint" />
          </mxGeometry>
        </mxCell>
        <mxCell id="wDdCfdmjTicAlC8jtAus-45" value="" style="endArrow=classic;html=1;exitX=0.5;exitY=1;exitDx=0;exitDy=0;" edge="1" parent="WIyWlLk6GJQsqaUBKTNV-1">
          <mxGeometry width="50" height="50" relative="1" as="geometry">
            <mxPoint x="269.65999999999997" y="1040.0000000000002" as="sourcePoint" />
            <mxPoint x="269.65999999999997" y="1070.0000000000002" as="targetPoint" />
            <Array as="points">
              <mxPoint x="269.65999999999997" y="1050" />
            </Array>
          </mxGeometry>
        </mxCell>
        <mxCell id="wDdCfdmjTicAlC8jtAus-46" value="" style="endArrow=classic;html=1;exitX=0.5;exitY=1;exitDx=0;exitDy=0;" edge="1" parent="WIyWlLk6GJQsqaUBKTNV-1">
          <mxGeometry width="50" height="50" relative="1" as="geometry">
            <mxPoint x="214.5" y="1110" as="sourcePoint" />
            <mxPoint x="214.5" y="1150" as="targetPoint" />
          </mxGeometry>
        </mxCell>
        <mxCell id="wDdCfdmjTicAlC8jtAus-47" value="返回" style="rounded=1;whiteSpace=wrap;html=1;fontSize=12;glass=0;strokeWidth=1;shadow=0;" vertex="1" parent="WIyWlLk6GJQsqaUBKTNV-1">
          <mxGeometry x="155" y="1150" width="120" height="40" as="geometry" />
        </mxCell>
        <mxCell id="wDdCfdmjTicAlC8jtAus-48" value="" style="endArrow=none;dashed=1;html=1;dashPattern=1 3;strokeWidth=2;" edge="1" parent="WIyWlLk6GJQsqaUBKTNV-1">
          <mxGeometry width="50" height="50" relative="1" as="geometry">
            <mxPoint x="414" y="1180" as="sourcePoint" />
            <mxPoint x="414" y="470" as="targetPoint" />
          </mxGeometry>
        </mxCell>
      </root>
    </mxGraphModel>
  </diagram>
</mxfile>
